<svg height="475pt" viewBox="0 -61 475.42142 475" width="475pt" xmlns="http://www.w3.org/2000/svg"><path d="m246.714844 229.320312c1.742187-6.574218 5.195312-12.570312 10.007812-17.382812l160.453125-160.453125c11.675781-11.671875 29.488281-14.621094 44.304688-7.335937-1.867188-3.792969-4.34375-7.257813-7.335938-10.25l-12.414062-12.414063c-15.066407-15.0625-39.488281-15.0625-54.554688 0l-160.453125 160.453125c-4.8125 4.808594-8.265625 10.808594-10.007812 17.382812l-21.066406 79.371094 40.628906-10.050781zm0 0" fill="#d4e1f4"/><g fill="#1ae5be"><path d="m432.777344 121.699219c-2.65625.003906-5.199219-1.050781-7.074219-2.929688l-67.847656-67.847656c-2.609375-2.5-3.664063-6.214844-2.765625-9.714844.902344-3.496093 3.621094-6.238281 7.109375-7.167969 3.492187-.929687 7.214843.09375 9.734375 2.679688l67.914062 67.914062c2.859375 2.859376 3.714844 7.160157 2.167969 10.894532-1.546875 3.738281-5.195313 6.175781-9.238281 6.175781zm0 0"/><path d="m249.859375 98.484375h-239.859375c-5.523438 0-10-4.476563-10-10 0-5.519531 4.476562-10 10-10h239.859375c5.523437 0 10 4.480469 10 10 0 5.523437-4.476563 10-10 10zm0 0"/><path d="m153.984375 183.519531h-143.984375c-5.523438 0-10-4.476562-10-10 0-5.523437 4.476562-10 10-10h143.984375c5.523437 0 10 4.476563 10 10 0 5.523438-4.476563 10-10 10zm0 0"/><path d="m153.984375 268.554688h-143.984375c-5.523438 0-10-4.480469-10-10 0-5.523438 4.476562-10 10-10h143.984375c5.523437 0 10 4.476562 10 10 0 5.519531-4.476563 10-10 10zm0 0"/><path d="m287.867188 353.585938h-277.867188c-5.523438 0-10-4.476563-10-10 0-5.523438 4.476562-10 10-10h277.867188c5.523437 0 10 4.476562 10 10 0 5.523437-4.476563 10-10 10zm0 0"/><path d="m398.222656 156.246094c-2.652344.003906-5.199218-1.046875-7.070312-2.925782l-67.851563-67.851562c-3.902343-3.902344-3.902343-10.234375 0-14.140625 3.90625-3.90625 10.238281-3.90625 14.144531 0l67.847657 67.847656c2.859375 2.859375 3.714843 7.160157 2.167969 10.898438-1.546876 3.738281-5.195313 6.171875-9.238282 6.171875zm0 0"/></g><path d="m448.800781 14.417969c-18.980469-18.941407-49.714843-18.941407-68.699219 0l-160.449218 160.449219c-6.054688 6.058593-10.402344 13.609374-12.601563 21.890624l-21.0625 79.371094c-.90625 3.414063.058594 7.054688 2.535157 9.574219 2.476562 2.519531 6.101562 3.546875 9.53125 2.695313l80.277343-19.859376c8.585938-2.125 16.429688-6.550781 22.683594-12.804687l160.199219-160.199219c18.941406-18.984375 18.941406-49.71875 0-68.703125zm-1.726562 66.96875-160.199219 160.199219c-3.679688 3.679687-8.292969 6.285156-13.34375 7.535156l-63.875 15.796875 16.722656-63.03125c1.296875-4.871094 3.851563-9.3125 7.414063-12.878907l160.449219-160.449218c11.167968-11.144532 29.25-11.144532 40.417968 0l12.414063 12.414062c11.160156 11.160156 11.160156 29.253906 0 40.414063zm0 0" fill="#0635c9"/></svg>