<svg id="Layer_1" height="512" viewBox="0 0 512 512" width="512" xmlns="http://www.w3.org/2000/svg" data-name="Layer 1"><g fill="#d4e1f4"><path d="m319.821 62.824-11-10q-11.7 15.508-20.809 30.057l11.245 9.619q9.057-14.372 20.564-29.676z"/><path d="m292.707 103.279-11-10a303.086 303.086 0 0 0 -17.269 34.189l11.218 9.5a303.444 303.444 0 0 1 17.051-33.689z"/><path d="m270.781 149.249-11-10a205.666 205.666 0 0 0 -10.127 38.151l11.079 9.544a205.88 205.88 0 0 1 10.048-37.695z"/><path d="m250.356 276.307q-.887-4.746-2.006-9.422a213.1 213.1 0 0 0 -56.588 2.826l11.5 9.913a216.506 216.506 0 0 1 47.094-3.317z"/><path d="m188.03 282.857-11-10a261.554 261.554 0 0 0 -40.73 13.73l11.568 9.762a261.439 261.439 0 0 1 40.162-13.492z"/><path d="m135.263 302.131-11-10a291.026 291.026 0 0 0 -33.4 19.13l11.395 9.739a290.871 290.871 0 0 1 33.005-18.869z"/><path d="m91.666 328.331-11-10a306.828 306.828 0 0 0 -28.6 23.5l11.349 9.681a306.675 306.675 0 0 1 28.251-23.181z"/><path d="m258.963 201.785-11-10c-1.925 25.875 2.65 47.371 9.641 64.539q3.948.923 7.922 1.616a143.249 143.249 0 0 1 -6.563-56.155z"/></g><path d="m465.962 171.165-154.12-131.539a6 6 0 1 0 -7.79 9.128l154.12 131.539a6 6 0 1 0 7.79-9.128z" fill="#0635c9"/><path d="m276.331 88.682 145.824 124.678a6 6 0 0 0 7.8-9.121l-145.827-124.678a6 6 0 1 0 -7.8 9.121z" fill="#0635c9"/><path d="m253.24 133.71 127.918 108.324a6 6 0 0 0 7.755-9.158l-127.913-108.323a6 6 0 0 0 -7.755 9.157z" fill="#0635c9"/><path d="m239.226 184.259 92.381 79.58a6 6 0 1 0 7.832-9.091l-92.381-79.581a6 6 0 0 0 -7.832 9.092z" fill="#0635c9"/><path d="m39.286 346.693 157.876 134.67a6 6 0 1 0 7.788-9.13l-157.876-134.67a6 6 0 0 0 -7.788 9.13z" fill="#0635c9"/><path d="m77.377 315.52 145.823 124.68a6 6 0 0 0 7.8-9.121l-145.825-124.679a6 6 0 0 0 -7.8 9.122z" fill="#0635c9"/><path d="m121.387 289.7 122.185 103.115a6 6 0 0 0 7.739-9.171l-122.185-103.111a6 6 0 1 0 -7.739 9.171z" fill="#0635c9"/><path d="m174.685 270.836 79.974 68.915a6 6 0 0 0 7.833-9.091l-79.974-68.914a6 6 0 1 0 -7.833 9.09z" fill="#0635c9"/><path d="m189.922 499.97c60.338-68.363 87.13-155.794 71.282-230.614a153.706 153.706 0 0 0 28.9 2.737c63.964 0 131.2-39.511 200.393-117.911a6 6 0 0 0 -9-7.94c-78.863 89.358-154.173 126.377-223.897 110.082-18.959-46.569-20.211-124.943 78.12-236.354l-9-7.94c-98.164 111.221-100.469 192.167-82.638 242.5-77.994-4.9-162.576 33.448-222.584 101.438a6 6 0 0 0 9 7.94c29.38-33.288 65.636-59.883 104.849-76.911 37.727-16.384 76.737-23.313 113-20.108 17.39 72.2-8.219 158.063-67.425 225.145a6 6 0 1 0 9 7.94z" fill="#1ae5be"/></svg>