<?xml version="1.0"?>
<svg xmlns="http://www.w3.org/2000/svg" id="Layer_1" data-name="Layer 1" viewBox="0 0 512 512" width="512" height="512"><title>Mind</title><path d="M142.133,308.838a.54.54,0,0,1-.079-.589l29.013-75.961a5.918,5.918,0,0,0,.395-2.108c.026-11.007.109-29.162.226-31.083A145.188,145.188,0,0,1,296.436,63.3a132.754,132.754,0,0,0-14.363-1.313q-1.868-.067-3.751-.089A145.182,145.182,0,0,0,131.688,199.1c-.117,1.921-.2,20.076-.226,31.083a5.918,5.918,0,0,1-.395,2.108l-29.013,75.961a.54.54,0,0,0,.079.589c.215.312.5.162.594.162h39.6A.431.431,0,0,1,142.133,308.838Z" style="fill:#d4e1f4"/><path d="M201.531,384.675A27.355,27.355,0,0,1,193,364.932V315.3c0-3.314-2.383-6.3-5.7-6.3h-40c3.313,0,5.7,2.987,5.7,6.3v49.631A27.76,27.76,0,0,0,181.7,392.4c1.66-.052,13.209-.314,34.363-.381A27.389,27.389,0,0,1,201.531,384.675Z" style="fill:#d4e1f4"/><path d="M292.926,413.079A27.642,27.642,0,0,0,266.173,392h-.118c-16.978,0-29.154.128-36.445.24a27.682,27.682,0,0,1,23.316,20.839,7.022,7.022,0,0,1,.074,1.6V450h40V414.675A7.022,7.022,0,0,0,292.926,413.079Z" style="fill:#d4e1f4"/><path d="M282.5,49.992q-2.019-.074-4.05-.095A157.185,157.185,0,0,0,119.708,198.418c-.159,2.624-.229,24.865-.243,30.653L90.843,304.043a12.42,12.42,0,0,0,1.407,11.6A12.58,12.58,0,0,0,102.727,321H141v43.932a39.645,39.645,0,0,0,41,39.458c1.013-.032,8.155-.39,44.1-.39h.067A15.675,15.675,0,0,1,241,415.478v40.635A6.093,6.093,0,0,0,247.216,462H382.133a5.909,5.909,0,0,0,5.987-6.31c-.054-.8-5.239-81.037-.013-137.178,1.409-15.134,15.858-51.45,17.238-54.892a146.3,146.3,0,0,0-3.472-141.761C376.737,78.64,332.113,51.776,282.5,49.992ZM394.569,258.338a5.686,5.686,0,0,0-.243.526c-.674,1.665-16.533,40.93-18.168,58.493-4.446,47.76-1.5,112.643-.387,132.643H253V414.675a7.022,7.022,0,0,0-.074-1.6A27.641,27.641,0,0,0,226.173,392h-.118c-27.524,0-42.446.336-44.351.4A27.76,27.76,0,0,1,153,364.932V315.3c0-3.314-2.383-6.3-5.7-6.3H102.727c-.094,0-.379.15-.594-.162a.54.54,0,0,1-.079-.589l29.013-75.961a5.918,5.918,0,0,0,.395-2.108c.026-11.007.109-29.162.226-31.083a145.182,145.182,0,0,1,146.634-137.2q1.882.02,3.751.089A131.566,131.566,0,0,1,391.5,127.9,134.38,134.38,0,0,1,394.569,258.338Z" style="fill:#0635c9"/><path d="M331.1,129.774a64.873,64.873,0,0,0-114.669-7.4,47.624,47.624,0,0,0-40.7,46.962q0,.438.008.874A36.187,36.187,0,0,0,154.787,200.7c-.047.76-.071,1.524-.071,2.274A36.071,36.071,0,0,0,190.746,239H328.284A54.649,54.649,0,0,0,331.1,129.774ZM328.284,227H190.746a24.057,24.057,0,0,1-24.03-24.03c0-.514.016-1.024.048-1.527a24.1,24.1,0,0,1,17-21.469,6,6,0,0,0,4.217-6.457,35.462,35.462,0,0,1,32.565-39.524,6,6,0,0,0,4.832-3.116,52.872,52.872,0,0,1,96.039,6.922,5.972,5.972,0,0,0,5.809,3.919c.348-.01.7-.015,1.057-.015a42.649,42.649,0,1,1,0,85.3Z" style="fill:#1ae5be"/></svg>
