<?xml version="1.0"?>
<svg xmlns="http://www.w3.org/2000/svg" id="Layer_1" data-name="Layer 1" viewBox="0 0 512 512" width="512" height="512"><title>Server Flow</title><path d="M53,164.5V64.5c0-2.206,2.294-3.5,4.5-3.5h-20c-2.206,0-4.5,1.294-4.5,3.5v100a4.912,4.912,0,0,0,4.5,4.5h20A4.912,4.912,0,0,1,53,164.5Z" style="fill:#d4e1f4"/><path d="M53,444.5v-100c0-2.206,2.294-3.5,4.5-3.5h-20c-2.206,0-4.5,1.294-4.5,3.5v100a4.912,4.912,0,0,0,4.5,4.5h20A4.912,4.912,0,0,1,53,444.5Z" style="fill:#d4e1f4"/><path d="M53,304.5v-100c0-2.206,2.294-3.5,4.5-3.5h-20c-2.206,0-4.5,1.294-4.5,3.5v100a4.912,4.912,0,0,0,4.5,4.5h20A4.912,4.912,0,0,1,53,304.5Z" style="fill:#d4e1f4"/><path d="M39,462H329a16,16,0,0,0,16-15.973v-100A16.042,16.042,0,0,0,329,330H295v-8h34a16,16,0,0,0,16-15.973v-100A16.042,16.042,0,0,0,329,190H295v-8h34a16,16,0,0,0,16-15.973v-100A16.042,16.042,0,0,0,329,50H39A16.042,16.042,0,0,0,23,66.027v100A16,16,0,0,0,39,182H73v8H39a16.042,16.042,0,0,0-16,16.027v100A16,16,0,0,0,39,322H73v8H39a16.042,16.042,0,0,0-16,16.027v100A16,16,0,0,0,39,462ZM85,318H283v15H85Zm0-140H283v15H85ZM35,166.027v-100A4.027,4.027,0,0,1,39,62H329a4.027,4.027,0,0,1,4,4.027v100A3.982,3.982,0,0,1,329,170H294.651A6.49,6.49,0,0,0,289,166H79a6.49,6.49,0,0,0-5.651,4H39A3.982,3.982,0,0,1,35,166.027Zm0,140v-100A4.027,4.027,0,0,1,39,202H73.81A5.592,5.592,0,0,0,79,205H289a5.592,5.592,0,0,0,5.19-3H329a4.027,4.027,0,0,1,4,4.027v100A3.982,3.982,0,0,1,329,310H294.651A6.49,6.49,0,0,0,289,306H79a6.49,6.49,0,0,0-5.651,4H39A3.982,3.982,0,0,1,35,306.027Zm0,40A4.027,4.027,0,0,1,39,342H73.81A5.592,5.592,0,0,0,79,345H289a5.592,5.592,0,0,0,5.19-3H329a4.027,4.027,0,0,1,4,4.027v100A3.982,3.982,0,0,1,329,450H39a3.982,3.982,0,0,1-4-3.973Z" style="fill:#0635c9"/><path d="M233.5,419.027a23,23,0,1,0-23-23A23.026,23.026,0,0,0,233.5,419.027Zm0-34a11,11,0,1,1-11,11A11.012,11.012,0,0,1,233.5,385.027Z" style="fill:#0635c9"/><path d="M291.5,419.027a23,23,0,1,0-23-23A23.026,23.026,0,0,0,291.5,419.027Zm0-34a11,11,0,1,1-11,11A11.012,11.012,0,0,1,291.5,385.027Z" style="fill:#0635c9"/><path d="M59,417.027a6,6,0,0,0,6-6v-30a6,6,0,0,0-12,0v30A6,6,0,0,0,59,417.027Z" style="fill:#0635c9"/><path d="M86,417.027a6,6,0,0,0,6-6v-30a6,6,0,0,0-12,0v30A6,6,0,0,0,86,417.027Z" style="fill:#0635c9"/><path d="M112,417.027a6,6,0,0,0,6-6v-30a6,6,0,0,0-12,0v30A6,6,0,0,0,112,417.027Z" style="fill:#0635c9"/><path d="M139,417.027a6,6,0,0,0,6-6v-30a6,6,0,0,0-12,0v30A6,6,0,0,0,139,417.027Z" style="fill:#0635c9"/><path d="M165,417.027a6,6,0,0,0,6-6v-30a6,6,0,0,0-12,0v30A6,6,0,0,0,165,417.027Z" style="fill:#0635c9"/><path d="M233.5,279.027a23,23,0,1,0-23-23A23.026,23.026,0,0,0,233.5,279.027Zm0-34a11,11,0,1,1-11,11A11.012,11.012,0,0,1,233.5,245.027Z" style="fill:#0635c9"/><path d="M291.5,279.027a23,23,0,1,0-23-23A23.026,23.026,0,0,0,291.5,279.027Zm0-34a11,11,0,1,1-11,11A11.012,11.012,0,0,1,291.5,245.027Z" style="fill:#0635c9"/><path d="M59,235.027a6,6,0,0,0-6,6v30a6,6,0,0,0,12,0v-30A6,6,0,0,0,59,235.027Z" style="fill:#0635c9"/><path d="M86,277.027a6,6,0,0,0,6-6v-30a6,6,0,0,0-12,0v30A6,6,0,0,0,86,277.027Z" style="fill:#0635c9"/><path d="M112,277.027a6,6,0,0,0,6-6v-30a6,6,0,0,0-12,0v30A6,6,0,0,0,112,277.027Z" style="fill:#0635c9"/><path d="M139,277.027a6,6,0,0,0,6-6v-30a6,6,0,0,0-12,0v30A6,6,0,0,0,139,277.027Z" style="fill:#0635c9"/><path d="M165,277.027a6,6,0,0,0,6-6v-30a6,6,0,0,0-12,0v30A6,6,0,0,0,165,277.027Z" style="fill:#0635c9"/><path d="M233.5,139.027a23,23,0,1,0-23-23A23.026,23.026,0,0,0,233.5,139.027Zm0-34a11,11,0,1,1-11,11A11.012,11.012,0,0,1,233.5,105.027Z" style="fill:#0635c9"/><path d="M291.5,139.027a23,23,0,1,0-23-23A23.026,23.026,0,0,0,291.5,139.027Zm0-34a11,11,0,1,1-11,11A11.012,11.012,0,0,1,291.5,105.027Z" style="fill:#0635c9"/><path d="M59,95.027a6,6,0,0,0-6,6v30a6,6,0,0,0,12,0v-30A6,6,0,0,0,59,95.027Z" style="fill:#0635c9"/><path d="M86,137.027a6,6,0,0,0,6-6v-30a6,6,0,1,0-12,0v30A6,6,0,0,0,86,137.027Z" style="fill:#0635c9"/><path d="M112,137.027a6,6,0,0,0,6-6v-30a6,6,0,1,0-12,0v30A6,6,0,0,0,112,137.027Z" style="fill:#0635c9"/><path d="M139,137.027a6,6,0,0,0,6-6v-30a6,6,0,1,0-12,0v30A6,6,0,0,0,139,137.027Z" style="fill:#0635c9"/><path d="M165,137.027a6,6,0,0,0,6-6v-30a6,6,0,1,0-12,0v30A6,6,0,0,0,165,137.027Z" style="fill:#0635c9"/><path d="M437.707,82c2.716,11,13.022,19.987,25.293,19.987a26,26,0,1,0,0-52c-12.271,0-22.577,9.01-25.293,20.01H388a5.978,5.978,0,0,0-6,5.973V250H344v12h38V435.973A6.023,6.023,0,0,0,388,442h49.707c2.716,11,13.022,19.987,25.293,19.987a26,26,0,1,0,0-52c-12.271,0-22.577,9.01-25.293,20.01H394V262h43.707c2.716,11,13.022,19.987,25.293,19.987a26,26,0,1,0,0-52c-12.271,0-22.577,9.01-25.293,20.01H394V82ZM463,61.973a14,14,0,1,1-14,14A14.015,14.015,0,0,1,463,61.973Zm0,360a14,14,0,1,1-14,14A14.015,14.015,0,0,1,463,421.973Zm0-180a14,14,0,1,1-14,14A14.015,14.015,0,0,1,463,241.973Z" style="fill:#1ae5be"/></svg>
