<?xml version="1.0"?>
<svg xmlns="http://www.w3.org/2000/svg" id="Layer_1" data-name="Layer 1" viewBox="0 0 512 512" width="512" height="512"><title>microscope 01</title><path d="M371.073,82.378l-5.133-3.314a13.394,13.394,0,0,1-.9,1.688l-66.149,103.2a13.224,13.224,0,0,1-18.242,3.984l-5.062-3.265a13.319,13.319,0,0,0,4.86,16.685l10.2,6.58a13.224,13.224,0,0,0,18.242-3.984l66.149-103.2A13.339,13.339,0,0,0,371.073,82.378Z" style="fill:#d4e1f4"/><path d="M371.154,124.607A6.912,6.912,0,0,0,368.1,124H364v14h2.475c42.74,21,71.2,63.958,74.425,111.786a134.751,134.751,0,0,1-92.278,137.357l4.364,13.279a149.185,149.185,0,0,0,18.168-275.815Z" style="fill:#0635c9"/><path d="M419.585,251.146a113.135,113.135,0,0,0-68.035-96.579,6.977,6.977,0,0,0-2.786-.567H344v14h3.286A99.658,99.658,0,0,1,337.3,353.464l4.321,13.314A113.3,113.3,0,0,0,419.585,251.146Z" style="fill:#0635c9"/><path d="M385.683,85.157l25.055-38.529a6.535,6.535,0,0,0,.685-6.052A28.941,28.941,0,0,0,384.267,22h-1.491a6.8,6.8,0,0,0-5.868,2.957L351.854,63.372l11.736,7.575,22.877-35.209a15.116,15.116,0,0,1,10.359,6.618l-22.88,35.176Z" style="fill:#0635c9"/><path d="M241.517,237.833a17.032,17.032,0,0,0,5.09,23.455l2.742,1.771a16.883,16.883,0,0,0,9.188,2.725,17.206,17.206,0,0,0,3.64-.392,16.889,16.889,0,0,0,10.707-7.44c.033-.05.064-.1.095-.152l8.722-14.4a17.43,17.43,0,0,0,1.975-.3,16.891,16.891,0,0,0,10.708-7.444L303.9,220.8a7,7,0,0,0-11.79-7.55L282.6,228.1a3,3,0,0,1-4.154.9l-12.09-7.808a3.005,3.005,0,0,1-.9-4.138l9.555-14.917a7,7,0,0,0-11.788-7.552L253.665,209.5a16.947,16.947,0,0,0-2.008,13.815L241.673,237.6C241.62,237.677,241.568,237.755,241.517,237.833Zm26.514,1.112-6.968,11.5a3,3,0,0,1-4.119.848l-2.742-1.771a3,3,0,0,1-.95-4.054l7.741-11.073Z" style="fill:#0635c9"/><path d="M295.087,364.186a7,7,0,1,0,4.234-13.344l-137.71-43.686a7,7,0,0,0-7.948,2.8l-20.208,30.425a7,7,0,0,0,3.73,10.55l150.561,47.385a7,7,0,0,0,4.2-13.355L150.268,340.372,162.406,322.1Z" style="fill:#0635c9"/><path d="M323.181,439.49a20.185,20.185,0,1,0-20.136-20.185A20.183,20.183,0,0,0,323.181,439.49Zm0-26.369a6.185,6.185,0,1,1-6.136,6.184A6.166,6.166,0,0,1,323.181,413.121Z" style="fill:#0635c9"/><path d="M79.071,497H290a7,7,0,0,0,0-14H79.071a12,12,0,1,1,0-24H290a7,7,0,0,0,0-14H79.071a26,26,0,1,0,0,52Z" style="fill:#0635c9"/><path d="M432.929,483H373a7,7,0,0,0,0,14h59.929a26,26,0,1,0,0-52H365a7,7,0,0,0,0,14h67.929a12,12,0,1,1,0,24Z" style="fill:#0635c9"/><path d="M379.2,494.349a6.981,6.981,0,0,0,1.309-5.959s-4.123-17.178-9.152-38.384c-2.116-8.916-4.4-18.485-6.6-27.744-2.629-11.038-5.152-21.629-7.163-30.124-1.595-6.757-2.887-12.162-3.652-15.367-.421-1.76-.679-2.837-.736-3.092a45.925,45.925,0,0,0-8.268-17.786c-7.012-9.267-17.043-14.582-27.523-14.582A34.68,34.68,0,0,0,283,375.188V490.031A6.974,6.974,0,0,0,290,497h83.7A6.985,6.985,0,0,0,379.2,494.349ZM297,483V375.188a20.689,20.689,0,0,1,20.411-19.877c8.29,0,13.807,5.657,16.372,9.047a32.248,32.248,0,0,1,5.733,12.271c.032.154.316,1.351.805,3.395.764,3.2,2.052,8.592,3.645,15.335,2.013,8.5,4.537,19.1,7.168,30.149,2.2,9.255,4.484,18.808,6.6,27.718,2.851,12.018,5.41,22.774,7.094,29.774Z" style="fill:#1ae5be"/><path d="M347.988,60.333a27.036,27.036,0,0,0-17.145,11.891l-66.137,103.2a27.353,27.353,0,0,0,8.148,37.7l10.2,6.58a26.882,26.882,0,0,0,14.635,4.332,27.554,27.554,0,0,0,5.831-.628,27.04,27.04,0,0,0,17.151-11.893l66.151-103.2h0a27.365,27.365,0,0,0-8.159-37.69l-10.2-6.584A26.978,26.978,0,0,0,347.988,60.333ZM360.878,75.8l10.195,6.582a13.339,13.339,0,0,1,3.966,18.374l-66.149,103.2a13.224,13.224,0,0,1-18.242,3.984l-10.2-6.58a13.329,13.329,0,0,1-3.956-18.376l66.137-103.2a13.134,13.134,0,0,1,8.33-5.768,13.432,13.432,0,0,1,2.843-.307A13.007,13.007,0,0,1,360.878,75.8Z" style="fill:#1ae5be"/></svg>
