<svg height="565pt" viewBox="-17 -49 565.33331 565" width="565pt" xmlns="http://www.w3.org/2000/svg"><path d="m521.539062 415.394531h-412.5c-32.433593-.035156-58.71875-26.320312-58.75-58.75v-350.097656c.003907-2.734375.199219-5.464844.578126-8.175781-28.984376 4.105468-50.539063 28.898437-50.578126 58.175781v350.097656c.03125 32.429688 26.316407 58.714844 58.75 58.75h412.5c29.277344-.035156 54.066407-21.59375 58.171876-50.582031-2.710938.386719-5.4375.574219-8.171876.582031zm0 0" fill="#d4e1f4"/><path d="m530 56.832031v350.097657c-.035156 32.4375-26.320312 58.722656-58.75 58.75h-412.5c-32.429688-.027344-58.7148438-26.3125-58.75-58.75v-350.097657c.0351562-32.429687 26.320312-58.714843 58.75-58.75h412.5c32.429688.035157 58.714844 26.320313 58.75 58.75zm-17.5 350.097657v-268.734376h-495v268.734376c.023438 22.773437 18.476562 41.230468 41.25 41.25h412.5c22.773438-.019532 41.226562-18.476563 41.25-41.25zm0-286.234376v-63.863281c-.023438-22.773437-18.476562-41.222656-41.25-41.25h-412.5c-22.773438.027344-41.226562 18.476563-41.25 41.25v63.863281zm0 0" fill="#0635c9"/><g fill="#1ae5be"><path d="m365 198.019531h-45.800781c-4.832031 0-8.75 3.921875-8.75 8.75v150.226563c0 4.832031 3.917969 8.75 8.75 8.75h45.800781c4.835938 0 8.75-3.917969 8.75-8.75v-150.226563c0-4.828125-3.914062-8.75-8.75-8.75zm-8.75 150.226563h-28.300781v-132.726563h28.300781zm0 0"/><path d="m287.898438 250.40625h-45.796876c-4.835937 0-8.75 3.917969-8.75 8.75v97.839844c0 4.832031 3.914063 8.75 8.75 8.75h45.796876c4.835937 0 8.75-3.917969 8.75-8.75v-97.839844c0-4.832031-3.914063-8.75-8.75-8.75zm-8.75 97.839844h-28.296876v-80.339844h28.296876zm0 0"/><path d="m234.664062 41.207031h-.074218c-15.292969-.023437-27.710938 12.355469-27.734375 27.644531-.023438 15.292969 12.355469 27.707032 27.644531 27.734376h.089844c15.253906-.007813 27.632812-12.34375 27.683594-27.605469v-.085938c-.015626-15.253906-12.355469-27.621093-27.609376-27.6875zm-.074218 37.878907h-.039063c-5.625-.011719-10.179687-4.582032-10.171875-10.207032.011719-5.628906 4.582032-10.179687 10.210938-10.171875h.023437c5.625.007813 10.183594 4.578125 10.171875 10.203125-.003906 5.625-4.570312 10.179688-10.195312 10.175782zm0 0"/><path d="m210.800781 286.335938h-45.800781c-4.835938 0-8.75 3.914062-8.75 8.75v61.910156c0 4.832031 3.914062 8.75 8.75 8.75h45.800781c4.832031 0 8.75-3.917969 8.75-8.75v-61.910156c0-4.835938-3.917969-8.75-8.75-8.75zm-8.75 61.910156h-28.300781v-44.410156h28.300781zm0 0"/><path d="m177.1875 68.722656c.039062-15.289062-12.308594-27.71875-27.597656-27.777344h-.089844c-15.289062-.023437-27.707031 12.351563-27.734375 27.644532-.023437 15.289062 12.355469 27.707031 27.648437 27.730468h.085938c15.25-.015624 27.625-12.347656 27.6875-27.597656zm-27.714844 10.097656c-5.625-.003906-10.179687-4.574218-10.171875-10.199218.003907-5.625 4.570313-10.179688 10.199219-10.175782h.035156c5.628906.019532 10.175782 4.59375 10.15625 10.21875-.011718 5.625-4.589844 10.175782-10.21875 10.15625zm0 0"/><path d="m64.511719 40.671875h-.089844c-15.289063-.023437-27.707031 12.351563-27.734375 27.652344-.023438 15.292969 12.355469 27.707031 27.648438 27.734375h.085937c15.300781.023437 27.71875-12.355469 27.742187-27.648438.023438-15.296875-12.355468-27.714844-27.652343-27.738281zm-.089844 37.886719h-.03125c-5.632813-.011719-10.1875-4.582032-10.175781-10.210938.007812-5.628906 4.578125-10.1875 10.207031-10.175781h.039063c5.632812.007813 10.1875 4.578125 10.179687 10.210937-.011719 5.628907-4.585937 10.183594-10.21875 10.175782zm0 0"/></g></svg>