<?xml version="1.0"?>
<svg xmlns="http://www.w3.org/2000/svg" id="Layer_1" data-name="Layer 1" viewBox="0 0 512 512" width="512" height="512"><title>set squares</title><polygon points="63 63 439.301 63 469.191 33 33 33 33 470.787 63 440.677 63 63" style="fill:#d4e1f4"/><path d="M106.329,310.629a7,7,0,0,0,7.632-1.531L307.944,114.252a7.259,7.259,0,0,0,1.5-7.782,7.146,7.146,0,0,0-6.464-4.47H109a7.273,7.273,0,0,0-7,7.312V304.159A7,7,0,0,0,106.329,310.629ZM116,116H286.136L116,287.207Z" style="fill:#0635c9"/><path d="M26,101H61a7,7,0,0,0,0-14H26a7,7,0,0,0,0,14Z" style="fill:#1ae5be"/><path d="M26,167H50a7,7,0,0,0,0-14H26a7,7,0,0,0,0,14Z" style="fill:#1ae5be"/><path d="M26,232H61a7,7,0,0,0,0-14H26a7,7,0,0,0,0,14Z" style="fill:#1ae5be"/><path d="M26,297H50a7,7,0,0,0,0-14H26a7,7,0,0,0,0,14Z" style="fill:#1ae5be"/><path d="M60.927,347.48H26.454a7,7,0,1,0,0,14H60.927a7,7,0,1,0,0-14Z" style="fill:#1ae5be"/><path d="M57,419a7,7,0,0,0-7-7H26a7,7,0,0,0,0,14H50A7,7,0,0,0,57,419Z" style="fill:#1ae5be"/><path d="M64,57.091a7,7,0,0,0,7-7V26a7,7,0,0,0-14,0v24.09A7,7,0,0,0,64,57.091Z" style="fill:#1ae5be"/><path d="M99,68.132a7,7,0,0,0,7-7V26a7,7,0,0,0-14,0V61.132A7,7,0,0,0,99,68.132Z" style="fill:#1ae5be"/><path d="M134,57.091a7,7,0,0,0,7-7V26a7,7,0,0,0-14,0v24.09A7,7,0,0,0,134,57.091Z" style="fill:#1ae5be"/><path d="M169,68.132a7,7,0,0,0,7-7V26a7,7,0,0,0-14,0V61.132A7,7,0,0,0,169,68.132Z" style="fill:#1ae5be"/><path d="M204,57.091a7,7,0,0,0,7-7V26a7,7,0,0,0-14,0v24.09A7,7,0,0,0,204,57.091Z" style="fill:#1ae5be"/><path d="M238,68.132a7,7,0,0,0,7-7V26a7,7,0,1,0-14,0V61.132A7,7,0,0,0,238,68.132Z" style="fill:#1ae5be"/><path d="M274,57.091a7,7,0,0,0,7-7V26a7,7,0,1,0-14,0v24.09A7,7,0,0,0,274,57.091Z" style="fill:#1ae5be"/><path d="M308,68.132a7,7,0,0,0,7-7V26a7,7,0,1,0-14,0V61.132A7,7,0,0,0,308,68.132Z" style="fill:#1ae5be"/><path d="M343,57.091a7,7,0,0,0,7-7V26a7,7,0,1,0-14,0v24.09A7,7,0,0,0,343,57.091Z" style="fill:#1ae5be"/><path d="M378,68.132a7,7,0,0,0,7-7V26a7,7,0,1,0-14,0V61.132A7,7,0,0,0,378,68.132Z" style="fill:#1ae5be"/><path d="M413,57.091a7,7,0,0,0,7-7V26a7,7,0,1,0-14,0v24.09A7,7,0,0,0,413,57.091Z" style="fill:#1ae5be"/><path d="M486.047,19H26a7,7,0,0,0-7,7V487.73a7,7,0,0,0,11.959,4.941L491.006,30.941A7,7,0,0,0,486.047,19ZM33,470.787V33H469.191Z" style="fill:#0635c9"/></svg>
