<svg id="visual" viewBox="0 0 1920 1080" width="1920" height="1080" xmlns="http://www.w3.org/2000/svg" xmlns:xlink="http://www.w3.org/1999/xlink" version="1.1"><path d="M1842 1080L1785 1080L1785 1008L1497 1008L1497 936L1669 936L1669 864L1458 864L1458 792L1785 792L1785 720L1477 720L1477 648L1554 648L1554 576L1573 576L1573 504L1785 504L1785 432L1573 432L1573 360L1669 360L1669 288L1458 288L1458 216L1900 216L1900 144L1765 144L1765 72L1746 72L1746 0L1920 0L1920 72L1920 72L1920 144L1920 144L1920 216L1920 216L1920 288L1920 288L1920 360L1920 360L1920 432L1920 432L1920 504L1920 504L1920 576L1920 576L1920 648L1920 648L1920 720L1920 720L1920 792L1920 792L1920 864L1920 864L1920 936L1920 936L1920 1008L1920 1008L1920 1080L1920 1080Z" fill="#003078"></path><path d="M1554 1080L1727 1080L1727 1008L1093 1008L1093 936L1631 936L1631 864L1170 864L1170 792L1593 792L1593 720L1305 720L1305 648L1055 648L1055 576L1362 576L1362 504L1746 504L1746 432L1305 432L1305 360L1305 360L1305 288L1074 288L1074 216L1477 216L1477 144L1209 144L1209 72L1132 72L1132 0L1747 0L1747 72L1766 72L1766 144L1901 144L1901 216L1459 216L1459 288L1670 288L1670 360L1574 360L1574 432L1786 432L1786 504L1574 504L1574 576L1555 576L1555 648L1478 648L1478 720L1786 720L1786 792L1459 792L1459 864L1670 864L1670 936L1498 936L1498 1008L1786 1008L1786 1080L1843 1080Z" fill="#36337f"></path><path d="M1477 1080L1573 1080L1573 1008L959 1008L959 936L1554 936L1554 864L1113 864L1113 792L1573 792L1573 720L1132 720L1132 648L901 648L901 576L1285 576L1285 504L1554 504L1554 432L1285 432L1285 360L1151 360L1151 288L1036 288L1036 216L1343 216L1343 144L1074 144L1074 72L1132 72L1132 0L1133 0L1133 72L1210 72L1210 144L1478 144L1478 216L1075 216L1075 288L1306 288L1306 360L1306 360L1306 432L1747 432L1747 504L1363 504L1363 576L1056 576L1056 648L1306 648L1306 720L1594 720L1594 792L1171 792L1171 864L1632 864L1632 936L1094 936L1094 1008L1728 1008L1728 1080L1555 1080Z" fill="#553484"></path><path d="M1093 1080L767 1080L767 1008L825 1008L825 936L959 936L959 864L863 864L863 792L940 792L940 720L786 720L786 648L882 648L882 576L1017 576L1017 504L1055 504L1055 432L940 432L940 360L1132 360L1132 288L825 288L825 216L1036 216L1036 144L767 144L767 72L1093 72L1093 0L1133 0L1133 72L1075 72L1075 144L1344 144L1344 216L1037 216L1037 288L1152 288L1152 360L1286 360L1286 432L1555 432L1555 504L1286 504L1286 576L902 576L902 648L1133 648L1133 720L1574 720L1574 792L1114 792L1114 864L1555 864L1555 936L960 936L960 1008L1574 1008L1574 1080L1478 1080Z" fill="#703686"></path><path d="M1074 1080L748 1080L748 1008L805 1008L805 936L882 936L882 864L729 864L729 792L901 792L901 720L786 720L786 648L825 648L825 576L940 576L940 504L921 504L921 432L921 432L921 360L1036 360L1036 288L690 288L690 216L997 216L997 144L767 144L767 72L1074 72L1074 0L1094 0L1094 72L768 72L768 144L1037 144L1037 216L826 216L826 288L1133 288L1133 360L941 360L941 432L1056 432L1056 504L1018 504L1018 576L883 576L883 648L787 648L787 720L941 720L941 792L864 792L864 864L960 864L960 936L826 936L826 1008L768 1008L768 1080L1094 1080Z" fill="#883787"></path><path d="M748 1080L498 1080L498 1008L575 1008L575 936L690 936L690 864L613 864L613 792L767 792L767 720L767 720L767 648L786 648L786 576L767 576L767 504L652 504L652 432L556 432L556 360L844 360L844 288L613 288L613 216L690 216L690 144L652 144L652 72L709 72L709 0L1075 0L1075 72L768 72L768 144L998 144L998 216L691 216L691 288L1037 288L1037 360L922 360L922 432L922 432L922 504L941 504L941 576L826 576L826 648L787 648L787 720L902 720L902 792L730 792L730 864L883 864L883 936L806 936L806 1008L749 1008L749 1080L1075 1080Z" fill="#9f3985"></path><path d="M633 1080L364 1080L364 1008L306 1008L306 936L575 936L575 864L613 864L613 792L460 792L460 720L633 720L633 648L556 648L556 576L575 576L575 504L383 504L383 432L441 432L441 360L709 360L709 288L402 288L402 216L537 216L537 144L402 144L402 72L479 72L479 0L710 0L710 72L653 72L653 144L691 144L691 216L614 216L614 288L845 288L845 360L557 360L557 432L653 432L653 504L768 504L768 576L787 576L787 648L768 648L768 720L768 720L768 792L614 792L614 864L691 864L691 936L576 936L576 1008L499 1008L499 1080L749 1080Z" fill="#b43c82"></path><path d="M479 1080L306 1080L306 1008L172 1008L172 936L479 936L479 864L498 864L498 792L460 792L460 720L594 720L594 648L402 648L402 576L402 576L402 504L383 504L383 432L345 432L345 360L556 360L556 288L268 288L268 216L479 216L479 144L383 144L383 72L345 72L345 0L480 0L480 72L403 72L403 144L538 144L538 216L403 216L403 288L710 288L710 360L442 360L442 432L384 432L384 504L576 504L576 576L557 576L557 648L634 648L634 720L461 720L461 792L614 792L614 864L576 864L576 936L307 936L307 1008L365 1008L365 1080L634 1080Z" fill="#c8417d"></path><path d="M421 1080L249 1080L249 1008L172 1008L172 936L383 936L383 864L383 864L383 792L306 792L306 720L575 720L575 648L364 648L364 576L325 576L325 504L345 504L345 432L210 432L210 360L441 360L441 288L249 288L249 216L479 216L479 144L268 144L268 72L345 72L345 0L346 0L346 72L384 72L384 144L480 144L480 216L269 216L269 288L557 288L557 360L346 360L346 432L384 432L384 504L403 504L403 576L403 576L403 648L595 648L595 720L461 720L461 792L499 792L499 864L480 864L480 936L173 936L173 1008L307 1008L307 1080L480 1080Z" fill="#d94978"></path><path d="M306 1080L133 1080L133 1008L172 1008L172 936L229 936L229 864L249 864L249 792L210 792L210 720L402 720L402 648L229 648L229 576L268 576L268 504L306 504L306 432L153 432L153 360L268 360L268 288L153 288L153 216L402 216L402 144L229 144L229 72L114 72L114 0L346 0L346 72L269 72L269 144L480 144L480 216L250 216L250 288L442 288L442 360L211 360L211 432L346 432L346 504L326 504L326 576L365 576L365 648L576 648L576 720L307 720L307 792L384 792L384 864L384 864L384 936L173 936L173 1008L250 1008L250 1080L422 1080Z" fill="#e85471"></path><path d="M172 1080L76 1080L76 1008L153 1008L153 936L153 936L153 864L37 864L37 792L153 792L153 720L172 720L172 648L153 648L153 576L153 576L153 504L229 504L229 432L37 432L37 360L57 360L57 288L133 288L133 216L172 216L172 144L210 144L210 72L37 72L37 0L115 0L115 72L230 72L230 144L403 144L403 216L154 216L154 288L269 288L269 360L154 360L154 432L307 432L307 504L269 504L269 576L230 576L230 648L403 648L403 720L211 720L211 792L250 792L250 864L230 864L230 936L173 936L173 1008L134 1008L134 1080L307 1080Z" fill="#f56069"></path><path d="M0 1080L0 1080L0 1008L0 1008L0 936L0 936L0 864L0 864L0 792L0 792L0 720L0 720L0 648L0 648L0 576L0 576L0 504L0 504L0 432L0 432L0 360L0 360L0 288L0 288L0 216L0 216L0 144L0 144L0 72L0 72L0 0L38 0L38 72L211 72L211 144L173 144L173 216L134 216L134 288L58 288L58 360L38 360L38 432L230 432L230 504L154 504L154 576L154 576L154 648L173 648L173 720L154 720L154 792L38 792L38 864L154 864L154 936L154 936L154 1008L77 1008L77 1080L173 1080Z" fill="#ff6f61"></path></svg>