<?xml version="1.0" encoding="utf-8"?>
<!-- Generator: Adobe Illustrator 16.0.0, SVG Export Plug-In . SVG Version: 6.00 Build 0)  -->
<!DOCTYPE svg PUBLIC "-//W3C//DTD SVG 1.1//EN" "http://www.w3.org/Graphics/SVG/1.1/DTD/svg11.dtd">
<svg version="1.1" id="Layer_1" xmlns="http://www.w3.org/2000/svg" xmlns:xlink="http://www.w3.org/1999/xlink" x="0px" y="0px"
	 width="264.725px" height="73.848px" viewBox="0 0 264.725 73.848" enable-background="new 0 0 264.725 73.848"
	 xml:space="preserve">
<g>
	<g transform="translate(141.38219046592712, 105.32749938964844)">
		
			<linearGradient id="SVGID_1_" gradientUnits="userSpaceOnUse" x1="-2007.4359" y1="10.775" x2="-2006.1952" y2="10.775" gradientTransform="matrix(213.4 0 0 59.53 428245.3125 -709.7924)">
			<stop  offset="0" style="stop-color:#000000"/>
			<stop  offset="1" style="stop-color:#000000"/>
		</linearGradient>
		<path fill="url(#SVGID_1_)" d="M-109.674-93.504l-15.891,15.963l15.816,14.354l-7.717,8.596l-23.917-22.477l23.371-24.303
			L-109.674-93.504z M-77.308-91.757v44.461h-11.079v-44.461h-16.71v-11.127h44.46v11.127H-77.308z M-27.566-47.296l-3.498-4.851
			l0,0c-0.853,0.776-1.762,1.51-2.728,2.195l0,0l0,0c-0.969,0.687-1.982,1.281-3.04,1.786l0,0l0,0
			c-1.06,0.505-2.149,0.905-3.275,1.203l0,0l0,0c-1.125,0.299-2.27,0.446-3.438,0.446l0,0l0,0c-2.556,0-4.957-0.454-7.207-1.364l0,0
			l0,0c-2.249-0.902-4.222-2.188-5.918-3.857l0,0l0,0c-1.686-1.663-3.019-3.689-3.993-6.078l0,0l0,0
			c-0.969-2.398-1.452-5.082-1.452-8.051l0,0v-22.949h10.544v22.949l0,0c0,1.398,0.215,2.647,0.646,3.747l0,0l0,0
			c0.422,1.093,0.996,2.015,1.724,2.766l0,0l0,0c0.72,0.754,1.568,1.323,2.543,1.713l0,0l0,0c0.967,0.381,2.005,0.569,3.113,0.569
			l0,0l0,0c1.084,0,2.114-0.245,3.089-0.743l0,0l0,0c0.967-0.504,1.812-1.171,2.532-1.997l0,0l0,0
			c0.727-0.828,1.297-1.766,1.71-2.816l0,0l0,0c0.415-1.05,0.621-2.129,0.621-3.238l0,0v-22.949h10.581v41.521L-27.566-47.296
			L-27.566-47.296z M-6.289-50.087v18.607h-10.657v-57.336h2.555l4.23,4.999l0,0c0.953-0.901,1.997-1.753,3.138-2.555l0,0l0,0
			c1.134-0.803,2.316-1.494,3.548-2.073l0,0l0,0c1.223-0.588,2.499-1.045,3.82-1.377l0,0l0,0C1.66-90.16,2.993-90.33,4.339-90.33
			l0,0l0,0c2.921,0,5.666,0.525,8.238,1.575l0,0l0,0c2.573,1.044,4.818,2.523,6.736,4.441l0,0l0,0
			c1.929,1.91,3.45,4.214,4.566,6.909l0,0l0,0c1.108,2.704,1.662,5.698,1.662,8.98l0,0l0,0c0,3.408-0.554,6.478-1.662,9.206l0,0l0,0
			c-1.115,2.729-2.638,5.04-4.566,6.935l0,0l0,0c-1.918,1.901-4.163,3.356-6.736,4.368l0,0l0,0
			c-2.571,1.007-5.317,1.512-8.238,1.512l0,0l0,0c-0.933,0-1.86-0.102-2.776-0.31l0,0l0,0c-0.918-0.206-1.824-0.485-2.719-0.831l0,0
			l0,0c-0.884-0.355-1.761-0.751-2.628-1.19l0,0l0,0C-4.654-49.174-5.489-49.624-6.289-50.087L-6.289-50.087z M14.922-68.423
			L14.922-68.423L14.922-68.423c0-1.762-0.282-3.336-0.843-4.727l0,0l0,0c-0.555-1.396-1.31-2.58-2.258-3.548l0,0l0,0
			c-0.958-0.975-2.083-1.721-3.375-2.231l0,0l0,0c-1.289-0.523-2.659-0.783-4.105-0.783l0,0l0,0c-1.449,0-2.812,0.26-4.095,0.783
			l0,0l0,0c-1.281,0.51-2.398,1.256-3.348,2.231l0,0l0,0c-0.959,0.968-1.718,2.151-2.27,3.548l0,0l0,0
			c-0.554,1.39-0.831,2.965-0.831,4.727l0,0l0,0c0,1.679,0.277,3.217,0.831,4.615l0,0l0,0c0.552,1.39,1.311,2.576,2.27,3.561l0,0
			l0,0c0.951,0.983,2.067,1.748,3.348,2.296l0,0l0,0c1.282,0.538,2.646,0.806,4.095,0.806l0,0l0,0c1.447,0,2.817-0.27,4.105-0.806
			l0,0l0,0c1.292-0.547,2.415-1.312,3.375-2.296l0,0l0,0c0.951-0.985,1.704-2.171,2.258-3.561l0,0l0,0
			C14.642-65.205,14.922-66.744,14.922-68.423z M42.049-105.328v58.032H31.394v-58.032H42.049z M86.474-81.372L66.626-57.456l0,0
			c0.415,0.132,0.826,0.22,1.241,0.261l0,0l0,0c0.414,0.032,0.826,0.05,1.24,0.05l0,0l0,0c1.034,0,2.03-0.14,2.989-0.423l0,0l0,0
			c0.959-0.288,1.855-0.698,2.692-1.227l0,0l0,0c0.843-0.53,1.591-1.175,2.246-1.936l0,0l0,0c0.661-0.761,1.199-1.609,1.611-2.544
			l0,0l7.753,7.802l0,0c-0.983,1.391-2.113,2.644-3.385,3.76l0,0l0,0c-1.284,1.108-2.668,2.05-4.159,2.826l0,0l0,0
			c-1.479,0.778-3.043,1.365-4.687,1.763l0,0l0,0c-1.638,0.405-3.325,0.607-5.062,0.607l0,0l0,0c-2.921,0-5.665-0.544-8.239-1.637
			l0,0l0,0c-2.569-1.084-4.816-2.594-6.735-4.528l0,0l0,0c-1.927-1.942-3.447-4.25-4.565-6.921l0,0l0,0
			c-1.107-2.679-1.662-5.62-1.662-8.82l0,0l0,0c0-3.282,0.555-6.279,1.662-8.994l0,0l0,0c1.117-2.712,2.639-5.027,4.565-6.947l0,0
			l0,0c1.919-1.91,4.164-3.394,6.735-4.453l0,0l0,0c2.573-1.06,5.318-1.586,8.239-1.586l0,0l0,0c1.736,0,3.434,0.206,5.086,0.62l0,0
			l0,0c1.654,0.413,3.222,1.007,4.702,1.785l0,0l0,0c1.488,0.769,2.879,1.715,4.168,2.84l0,0l0,0
			C84.361-84.031,85.498-82.77,86.474-81.372L86.474-81.372z M59.727-62.916l12.331-16.361l0,0
			c-0.489-0.181-0.973-0.297-1.451-0.346l0,0l0,0c-0.479-0.059-0.981-0.087-1.503-0.087l0,0l0,0c-1.446,0-2.808,0.27-4.08,0.806l0,0
			l0,0c-1.283,0.53-2.396,1.282-3.337,2.258l0,0l0,0c-0.943,0.984-1.685,2.166-2.231,3.546l0,0l0,0
			c-0.539,1.38-0.807,2.94-0.807,4.677l0,0l0,0c0,0.39,0.018,0.829,0.049,1.315l0,0l0,0c0.042,0.489,0.108,0.984,0.198,1.49l0,0l0,0
			c0.091,0.504,0.203,0.991,0.335,1.463l0,0l0,0C59.358-63.691,59.521-63.279,59.727-62.916L59.727-62.916z M107.526-77.541
			L91.634-93.504l8.337-7.866l23.371,24.303L99.424-54.591l-7.715-8.596L107.526-77.541z"/>
	</g>
</g>
</svg>
