<?xml version="1.0" encoding="utf-8"?>
<!-- Generator: Adobe Illustrator 16.0.0, SVG Export Plug-In . SVG Version: 6.00 Build 0)  -->
<!DOCTYPE svg PUBLIC "-//W3C//DTD SVG 1.1//EN" "http://www.w3.org/Graphics/SVG/1.1/DTD/svg11.dtd">
<svg version="1.1" id="Layer_1" xmlns="http://www.w3.org/2000/svg" xmlns:xlink="http://www.w3.org/1999/xlink" x="0px" y="0px"
	 width="321.644px" height="127.992px" viewBox="0 0 321.644 127.992" enable-background="new 0 0 321.644 127.992"
	 xml:space="preserve">
<g>
	<g transform="translate(141.38219046592712, 105.32749938964844)">
		
			<linearGradient id="SVGID_1_" gradientUnits="userSpaceOnUse" x1="-1003.8002" y1="977.5104" x2="-1002.8002" y2="977.5104" gradientTransform="matrix(213.4 0 0 -59.53 214123.6719 58149.7539)">
			<stop  offset="0" style="stop-color:#000000"/>
			<stop  offset="1" style="stop-color:#000000"/>
		</linearGradient>
		<path fill="url(#SVGID_1_)" d="M-61.7-61.566l-12.81,12.869l12.75,11.57l-6.221,6.93l-19.28-18.119l18.84-19.591L-61.7-61.566z
			 M-35.609-60.157v35.841h-8.931v-35.841h-13.47v-8.97h35.84v8.97H-35.609z M4.49-24.316l-2.82-3.91l0,0
			c-0.687,0.626-1.42,1.217-2.199,1.77l0,0l0,0c-0.781,0.553-1.598,1.033-2.451,1.439l0,0l0,0c-0.854,0.407-1.732,0.73-2.64,0.971
			l0,0l0,0c-0.907,0.24-1.83,0.359-2.771,0.359l0,0l0,0c-2.06,0-3.996-0.366-5.81-1.1l0,0l0,0c-1.813-0.727-3.403-1.764-4.771-3.109
			l0,0l0,0c-1.359-1.341-2.433-2.974-3.219-4.9l0,0l0,0c-0.781-1.934-1.17-4.097-1.17-6.49l0,0v-18.5h8.5v18.5l0,0
			c0,1.127,0.173,2.133,0.52,3.02l0,0l0,0c0.34,0.881,0.803,1.624,1.39,2.23l0,0l0,0c0.58,0.607,1.264,1.066,2.05,1.38l0,0l0,0
			c0.78,0.307,1.617,0.46,2.51,0.46l0,0l0,0c0.874,0,1.704-0.199,2.49-0.6l0,0l0,0c0.78-0.406,1.461-0.943,2.041-1.61l0,0l0,0
			c0.586-0.667,1.046-1.423,1.379-2.27l0,0l0,0c0.334-0.847,0.5-1.717,0.5-2.61l0,0v-18.5h8.53v33.471H4.49z M21.641-26.566v15
			H13.05v-46.221h2.06l3.41,4.03l0,0c0.768-0.727,1.61-1.413,2.53-2.06l0,0l0,0c0.913-0.647,1.866-1.204,2.86-1.671l0,0l0,0
			c0.986-0.474,2.014-0.843,3.08-1.11l0,0l0,0c1.06-0.272,2.133-0.409,3.22-0.409l0,0l0,0c2.354,0,4.567,0.423,6.64,1.27l0,0l0,0
			c2.074,0.841,3.884,2.034,5.43,3.58l0,0l0,0c1.555,1.54,2.781,3.397,3.681,5.57l0,0l0,0c0.894,2.18,1.34,4.593,1.34,7.239l0,0l0,0
			c0,2.747-0.446,5.221-1.34,7.421l0,0l0,0c-0.899,2.2-2.126,4.063-3.681,5.59l0,0l0,0c-1.546,1.533-3.355,2.706-5.43,3.521l0,0l0,0
			c-2.072,0.812-4.286,1.219-6.64,1.219l0,0l0,0c-0.753,0-1.5-0.082-2.239-0.25l0,0l0,0c-0.74-0.166-1.471-0.39-2.191-0.67l0,0l0,0
			c-0.713-0.286-1.42-0.605-2.119-0.959l0,0l0,0C22.96-25.829,22.287-26.193,21.641-26.566L21.641-26.566z M38.74-41.347
			L38.74-41.347L38.74-41.347c0-1.42-0.227-2.689-0.68-3.81l0,0l0,0c-0.447-1.126-1.055-2.08-1.82-2.86l0,0l0,0
			c-0.773-0.786-1.68-1.387-2.721-1.799l0,0l0,0c-1.039-0.421-2.143-0.631-3.31-0.631l0,0l0,0c-1.167,0-2.267,0.21-3.3,0.631l0,0
			l0,0c-1.033,0.412-1.934,1.013-2.7,1.799l0,0l0,0c-0.773,0.78-1.384,1.734-1.83,2.86l0,0l0,0c-0.446,1.12-0.67,2.39-0.67,3.81l0,0
			l0,0c0,1.354,0.224,2.594,0.67,3.721l0,0l0,0c0.446,1.12,1.057,2.076,1.83,2.87l0,0l0,0c0.767,0.793,1.667,1.409,2.7,1.85l0,0l0,0
			c1.033,0.434,2.133,0.65,3.3,0.65l0,0l0,0c1.167,0,2.271-0.217,3.31-0.65l0,0l0,0c1.041-0.44,1.947-1.057,2.721-1.85l0,0l0,0
			c0.766-0.794,1.373-1.75,1.82-2.87l0,0l0,0C38.514-38.753,38.74-39.994,38.74-41.347z M60.609-71.097v46.781h-8.59v-46.781H60.609
			z M96.42-51.786l-16,19.28l0,0c0.334,0.106,0.666,0.177,1,0.21l0,0l0,0c0.334,0.026,0.666,0.04,1,0.04l0,0l0,0
			c0.834,0,1.637-0.113,2.41-0.341l0,0l0,0c0.773-0.232,1.496-0.562,2.17-0.989l0,0l0,0c0.68-0.427,1.283-0.946,1.811-1.56l0,0l0,0
			c0.533-0.613,0.967-1.297,1.299-2.051l0,0l6.25,6.29l0,0c-0.793,1.12-1.703,2.13-2.729,3.03l0,0l0,0
			c-1.035,0.894-2.15,1.653-3.352,2.279l0,0l0,0c-1.193,0.627-2.453,1.101-3.779,1.421l0,0l0,0c-1.32,0.326-2.68,0.489-4.08,0.489
			l0,0l0,0c-2.354,0-4.566-0.439-6.641-1.319l0,0l0,0c-2.072-0.874-3.883-2.091-5.43-3.65l0,0l0,0
			c-1.553-1.566-2.779-3.427-3.68-5.58l0,0l0,0c-0.893-2.159-1.34-4.53-1.34-7.11l0,0l0,0c0-2.646,0.447-5.062,1.34-7.25l0,0l0,0
			c0.9-2.186,2.127-4.053,3.68-5.6l0,0l0,0c1.547-1.54,3.357-2.736,5.43-3.59l0,0l0,0c2.074-0.854,4.287-1.279,6.641-1.279l0,0l0,0
			c1.4,0,2.768,0.166,4.1,0.5l0,0l0,0c1.334,0.333,2.598,0.812,3.791,1.439l0,0l0,0c1.199,0.62,2.32,1.383,3.359,2.29l0,0l0,0
			C94.717-53.929,95.633-52.913,96.42-51.786L96.42-51.786z M74.859-36.907l9.941-13.19l0,0c-0.395-0.146-0.785-0.239-1.17-0.279
			l0,0l0,0c-0.387-0.047-0.791-0.07-1.211-0.07l0,0l0,0c-1.166,0-2.264,0.217-3.289,0.65l0,0l0,0
			c-1.035,0.427-1.932,1.033-2.691,1.82l0,0l0,0c-0.76,0.793-1.359,1.746-1.799,2.859l0,0l0,0c-0.434,1.113-0.65,2.37-0.65,3.77l0,0
			l0,0c0,0.314,0.014,0.668,0.039,1.061l0,0l0,0c0.034,0.394,0.088,0.793,0.16,1.2l0,0l0,0c0.074,0.407,0.164,0.8,0.271,1.18l0,0
			l0,0C74.561-37.533,74.693-37.2,74.859-36.907L74.859-36.907z M113.391-48.697L100.58-61.566l6.721-6.341l18.84,19.591
			l-19.281,18.119l-6.219-6.93L113.391-48.697z"/>
	</g>
</g>
</svg>
