<svg width="321.64370117187497px" height="127.9923828125px" xmlns="http://www.w3.org/2000/svg" viewBox="89.17814941406252 11.003808593750001 321.64370117187497 127.9923828125" style="background: none;" preserveAspectRatio="xMidYMid"><defs><linearGradient id="editing-gradient-gradient" x1="0" x2="1" y1="0.5" y2="0.5" gradientUnits="objectBoundingBox"><stop offset="0" stop-color="#000000"></stop><stop offset="1" stop-color="#000000"></stop></linearGradient></defs><g><g transform="translate(141.38219046592712, 105.32749938964844)"><path d="M27.47-37.25L14.66-24.38L27.41-12.81L21.19-5.88L1.91-24L20.75-43.59L27.47-37.25ZM53.56-35.84L53.56 0L44.63 0L44.63-35.84L31.16-35.84L31.16-44.81L67-44.81L67-35.84L53.56-35.84ZM93.66 0L90.84-3.91L90.84-3.91Q89.81-2.97 88.64-2.14L88.64-2.14L88.64-2.14Q87.47-1.31 86.19-0.70L86.19-0.70L86.19-0.70Q84.91-0.09 83.55 0.27L83.55 0.27L83.55 0.27Q82.19 0.63 80.78 0.63L80.78 0.63L80.78 0.63Q77.69 0.63 74.97-0.47L74.97-0.47L74.97-0.47Q72.25-1.56 70.20-3.58L70.20-3.58L70.20-3.58Q68.16-5.59 66.98-8.48L66.98-8.48L66.98-8.48Q65.81-11.38 65.81-14.97L65.81-14.97L65.81-33.47L74.31-33.47L74.31-14.97L74.31-14.97Q74.31-13.28 74.83-11.95L74.83-11.95L74.83-11.95Q75.34-10.63 76.22-9.72L76.22-9.72L76.22-9.72Q77.09-8.81 78.27-8.34L78.27-8.34L78.27-8.34Q79.44-7.88 80.78-7.88L80.78-7.88L80.78-7.88Q82.09-7.88 83.27-8.48L83.27-8.48L83.27-8.48Q84.44-9.09 85.31-10.09L85.31-10.09L85.31-10.09Q86.19-11.09 86.69-12.36L86.69-12.36L86.69-12.36Q87.19-13.63 87.19-14.97L87.19-14.97L87.19-33.47L95.72-33.47L95.72 0L93.66 0ZM110.81-2.25L110.81 12.75L102.22 12.75L102.22-33.47L104.28-33.47L107.69-29.44L107.69-29.44Q108.84-30.53 110.22-31.50L110.22-31.50L110.22-31.50Q111.59-32.47 113.08-33.17L113.08-33.17L113.08-33.17Q114.56-33.88 116.16-34.28L116.16-34.28L116.16-34.28Q117.75-34.69 119.38-34.69L119.38-34.69L119.38-34.69Q122.91-34.69 126.02-33.42L126.02-33.42L126.02-33.42Q129.13-32.16 131.45-29.84L131.45-29.84L131.45-29.84Q133.78-27.53 135.13-24.27L135.13-24.27L135.13-24.27Q136.47-21 136.47-17.03L136.47-17.03L136.47-17.03Q136.47-12.91 135.13-9.61L135.13-9.61L135.13-9.61Q133.78-6.31 131.45-4.02L131.45-4.02L131.45-4.02Q129.13-1.72 126.02-0.50L126.02-0.50L126.02-0.50Q122.91 0.72 119.38 0.72L119.38 0.72L119.38 0.72Q118.25 0.72 117.14 0.47L117.14 0.47L117.14 0.47Q116.03 0.22 114.95-0.20L114.95-0.20L114.95-0.20Q113.88-0.63 112.83-1.16L112.83-1.16L112.83-1.16Q111.78-1.69 110.81-2.25L110.81-2.25ZM127.91-17.03L127.91-17.03L127.91-17.03Q127.91-19.16 127.23-20.84L127.23-20.84L127.23-20.84Q126.56-22.53 125.41-23.70L125.41-23.70L125.41-23.70Q124.25-24.88 122.69-25.50L122.69-25.50L122.69-25.50Q121.13-26.13 119.38-26.13L119.38-26.13L119.38-26.13Q117.63-26.13 116.08-25.50L116.08-25.50L116.08-25.50Q114.53-24.88 113.38-23.70L113.38-23.70L113.38-23.70Q112.22-22.53 111.55-20.84L111.55-20.84L111.55-20.84Q110.88-19.16 110.88-17.03L110.88-17.03L110.88-17.03Q110.88-15 111.55-13.31L111.55-13.31L111.55-13.31Q112.22-11.63 113.38-10.44L113.38-10.44L113.38-10.44Q114.53-9.25 116.08-8.59L116.08-8.59L116.08-8.59Q117.63-7.94 119.38-7.94L119.38-7.94L119.38-7.94Q121.13-7.94 122.69-8.59L122.69-8.59L122.69-8.59Q124.25-9.25 125.41-10.44L125.41-10.44L125.41-10.44Q126.56-11.63 127.23-13.31L127.23-13.31L127.23-13.31Q127.91-15 127.91-17.03ZM149.78-46.78L149.78 0L141.19 0L141.19-46.78L149.78-46.78ZM185.59-27.47L169.59-8.19L169.59-8.19Q170.09-8.03 170.59-7.98L170.59-7.98L170.59-7.98Q171.09-7.94 171.59-7.94L171.59-7.94L171.59-7.94Q172.84-7.94 174-8.28L174-8.28L174-8.28Q175.16-8.63 176.17-9.27L176.17-9.27L176.17-9.27Q177.19-9.91 177.98-10.83L177.98-10.83L177.98-10.83Q178.78-11.75 179.28-12.88L179.28-12.88L185.53-6.59L185.53-6.59Q184.34-4.91 182.80-3.56L182.80-3.56L182.80-3.56Q181.25-2.22 179.45-1.28L179.45-1.28L179.45-1.28Q177.66-0.34 175.67 0.14L175.67 0.14L175.67 0.14Q173.69 0.63 171.59 0.63L171.59 0.63L171.59 0.63Q168.06 0.63 164.95-0.69L164.95-0.69L164.95-0.69Q161.84-2 159.52-4.34L159.52-4.34L159.52-4.34Q157.19-6.69 155.84-9.92L155.84-9.92L155.84-9.92Q154.50-13.16 154.50-17.03L154.50-17.03L154.50-17.03Q154.50-21 155.84-24.28L155.84-24.28L155.84-24.28Q157.19-27.56 159.52-29.88L159.52-29.88L159.52-29.88Q161.84-32.19 164.95-33.47L164.95-33.47L164.95-33.47Q168.06-34.75 171.59-34.75L171.59-34.75L171.59-34.75Q173.69-34.75 175.69-34.25L175.69-34.25L175.69-34.25Q177.69-33.75 179.48-32.81L179.48-32.81L179.48-32.81Q181.28-31.88 182.84-30.52L182.84-30.52L182.84-30.52Q184.41-29.16 185.59-27.47L185.59-27.47ZM164.03-12.59L173.97-25.78L173.97-25.78Q173.38-26 172.80-26.06L172.80-26.06L172.80-26.06Q172.22-26.13 171.59-26.13L171.59-26.13L171.59-26.13Q169.84-26.13 168.30-25.48L168.30-25.48L168.30-25.48Q166.75-24.84 165.61-23.66L165.61-23.66L165.61-23.66Q164.47-22.47 163.81-20.80L163.81-20.80L163.81-20.80Q163.16-19.13 163.16-17.03L163.16-17.03L163.16-17.03Q163.16-16.56 163.20-15.97L163.20-15.97L163.20-15.97Q163.25-15.38 163.36-14.77L163.36-14.77L163.36-14.77Q163.47-14.16 163.63-13.59L163.63-13.59L163.63-13.59Q163.78-13.03 164.03-12.59L164.03-12.59ZM202.56-24.38L189.75-37.25L196.47-43.59L215.31-24L196.03-5.88L189.81-12.81L202.56-24.38Z" fill="url(#editing-gradient-gradient)"></path></g></g><style>text {
  font-size: 64px;
  font-family: Arial Black;
  dominant-baseline: central;
  text-anchor: middle;
}</style></svg>